<?xml version="1.0" encoding="UTF-8" ?>
<!DOCTYPE svg PUBLIC "-//W3C//DTD SVG 1.1//EN" "http://www.w3.org/Graphics/SVG/1.1/DTD/svg11.dtd">
<svg width="27pt" height="17pt" viewBox="0 0 27 17" version="1.1" xmlns="http://www.w3.org/2000/svg">
<g id="#ebc712ff">
<path fill="#ebc712" opacity="1.00" d=" M 8.52 0.00 L 18.46 0.00 C 18.54 2.57 18.62 5.15 18.60 7.72 C 21.40 7.74 24.20 7.73 27.00 7.80 L 27.00 17.00 L 0.00 17.00 L 0.00 4.84 C 2.79 4.75 5.58 4.71 8.37 4.72 C 8.41 3.15 8.49 1.57 8.52 0.00 M 10.18 1.80 C 10.17 6.27 10.17 10.73 10.18 15.20 C 12.39 15.20 14.61 15.20 16.82 15.20 C 16.83 10.73 16.83 6.27 16.82 1.80 C 14.61 1.80 12.39 1.80 10.18 1.80 M 1.71 6.60 C 1.70 9.47 1.70 12.33 1.71 15.20 C 3.94 15.20 6.17 15.20 8.41 15.20 C 8.41 12.33 8.42 9.47 8.41 6.60 C 6.17 6.60 3.94 6.60 1.71 6.60 M 18.59 9.53 C 18.60 11.42 18.59 13.31 18.59 15.20 C 20.82 15.20 23.06 15.20 25.29 15.20 C 25.29 13.31 25.29 11.42 25.30 9.53 C 23.06 9.53 20.82 9.53 18.59 9.53 Z" />
</g>
</svg>
