<?xml version="1.0" encoding="UTF-8" ?>
<!DOCTYPE svg PUBLIC "-//W3C//DTD SVG 1.1//EN" "http://www.w3.org/Graphics/SVG/1.1/DTD/svg11.dtd">
<svg width="20pt" height="15pt" viewBox="0 0 20 15" version="1.1" xmlns="http://www.w3.org/2000/svg">
<g id="#ba9d0eca">
<path fill="#ba9d0e" opacity="0.79" d=" M 0.00 0.00 L 18.04 0.00 C 18.02 0.50 17.98 1.49 17.96 1.99 C 11.97 2.00 5.99 2.01 0.00 2.00 L 0.00 0.00 Z" />
<path fill="#ba9d0e" opacity="0.79" d=" M 0.00 4.00 C 5.00 3.99 10.00 4.00 15.00 4.00 C 15.00 4.50 15.00 5.50 15.00 5.99 C 10.00 6.01 5.00 6.01 0.00 6.00 L 0.00 4.00 Z" />
<path fill="#ba9d0e" opacity="0.79" d=" M 0.00 9.00 C 6.67 9.00 13.33 9.00 20.00 9.00 L 20.00 11.00 C 13.33 11.00 6.67 11.00 0.00 11.00 L 0.00 9.00 Z" />
<path fill="#ba9d0e" opacity="0.79" d=" M 0.00 12.99 C 2.65 13.00 5.30 13.01 7.95 13.01 C 7.98 13.51 8.02 14.50 8.05 15.00 L 0.00 15.00 L 0.00 12.99 Z" />
</g>
</svg>
