<?xml version="1.0" encoding="UTF-8" ?>
<!DOCTYPE svg PUBLIC "-//W3C//DTD SVG 1.1//EN" "http://www.w3.org/Graphics/SVG/1.1/DTD/svg11.dtd">
<svg width="19pt" height="19pt" viewBox="0 0 19 19" version="1.1" xmlns="http://www.w3.org/2000/svg">
<g id="#cfaf0fe1">
<path fill="#cfaf0f" opacity="0.88" d=" M 2.96 0.00 L 5.65 0.00 C 7.97 1.27 9.19 4.31 7.53 6.59 C 5.66 9.26 1.54 8.39 0.00 5.81 L 0.00 2.93 C 1.12 2.11 2.13 1.12 2.96 0.00 M 2.00 3.57 C 2.07 6.18 3.78 6.25 5.94 5.61 C 7.10 2.31 3.21 0.66 2.00 3.57 Z" />
<path fill="#cfaf0f" opacity="0.88" d=" M 14.47 0.00 L 15.90 0.00 C 12.68 6.70 8.42 12.94 4.11 19.00 L 3.32 19.00 C 3.69 16.01 5.67 13.66 7.20 11.19 C 9.65 7.48 11.80 3.57 14.47 0.00 Z" />
<path fill="#cfaf0f" opacity="0.88" d=" M 11.79 11.81 C 13.98 9.66 17.59 10.73 19.00 13.23 L 19.00 16.07 C 17.88 16.90 16.87 17.88 16.03 19.00 L 13.19 19.00 C 10.62 17.63 9.60 13.97 11.79 11.81 M 16.05 16.85 C 16.91 15.74 17.42 12.46 14.85 13.12 C 11.39 12.14 12.91 18.78 16.05 16.85 Z" />
</g>
</svg>
