<?xml version="1.0" encoding="UTF-8" ?>
<!DOCTYPE svg PUBLIC "-//W3C//DTD SVG 1.1//EN" "http://www.w3.org/Graphics/SVG/1.1/DTD/svg11.dtd">
<svg width="21pt" height="21pt" viewBox="0 0 21 21" version="1.1" xmlns="http://www.w3.org/2000/svg">
<g id="#c6a80fd7">
<path fill="#c6a80f" opacity="0.84" d=" M 8.47 0.00 L 12.45 0.00 C 16.63 1.00 19.98 4.29 21.00 8.47 L 21.00 12.48 C 20.03 16.67 16.69 19.91 12.57 21.00 L 8.48 21.00 C 4.33 19.95 0.99 16.69 0.00 12.50 L 0.00 8.58 C 0.94 4.35 4.31 1.07 8.47 0.00 M 7.31 2.36 C 1.34 4.45 -0.10 13.29 4.89 17.15 C 9.90 21.83 19.33 17.90 19.12 10.91 C 19.81 4.78 12.89 0.05 7.31 2.36 Z" />
<path fill="#c6a80f" opacity="0.84" d=" M 7.70 8.29 C 6.21 4.82 11.84 3.41 12.87 6.24 C 15.32 8.56 11.44 10.61 10.84 13.00 L 9.49 13.00 C 8.67 10.79 10.89 9.51 11.96 7.89 C 11.60 7.54 10.87 6.84 10.51 6.49 C 9.81 6.94 8.40 7.84 7.70 8.29 Z" />
<path fill="#c6a80f" opacity="0.84" d=" M 9.38 14.30 C 10.34 12.72 12.81 14.59 11.66 15.97 C 10.68 17.53 8.15 15.71 9.38 14.30 Z" />
</g>
</svg>
