<?xml version="1.0" encoding="UTF-8"?><!DOCTYPE svg PUBLIC "-//W3C//DTD SVG 1.1//EN" "http://www.w3.org/Graphics/SVG/1.1/DTD/svg11.dtd"><svg xmlns="http://www.w3.org/2000/svg"><symbol id="diagram_nav" viewBox="0 0 27 17">
    <path d="M8.52 0h9.94c.08 2.57.16 5.15.14 7.72 2.8.02 5.6.01 8.4.08V17H0V4.84c2.79-.09 5.58-.13 8.37-.12.04-1.57.12-3.15.15-4.72m1.66 1.8c-.01 4.47-.01 8.93 0 13.4h6.64c.01-4.47.01-8.93 0-13.4h-6.64M1.71 6.6c-.01 2.87-.01 5.73 0 8.6h6.7c0-2.87.01-5.73 0-8.6h-6.7m16.88 2.93c.01 1.89 0 3.78 0 5.67h6.7c0-1.89 0-3.78.01-5.67h-6.71z"/>
</symbol><symbol id="news_nav" viewBox="0 0 20 15">
    <g>
        <path opacity=".79" d="M0 0h18.04l-.08 1.99C11.97 2 5.99 2.01 0 2V0zM0 4c5-.01 10 0 15 0v1.99C10 6.01 5 6.01 0 6V4zM0 9h20v2H0V9zM0 12.99c2.65.01 5.3.02 7.95.02.03.5.07 1.49.1 1.99H0v-2.01z"/>
    </g>
</symbol><symbol id="procent_nav" viewBox="0 0 19 19">
    <g>
        <path opacity=".88" d="M2.96 0h2.69c2.32 1.27 3.54 4.31 1.88 6.59C5.66 9.26 1.54 8.39 0 5.81V2.93C1.12 2.11 2.13 1.12 2.96 0M2 3.57c.07 2.61 1.78 2.68 3.94 2.04C7.1 2.31 3.21.66 2 3.57zM14.47 0h1.43C12.68 6.7 8.42 12.94 4.11 19h-.79c.37-2.99 2.35-5.34 3.88-7.81C9.65 7.48 11.8 3.57 14.47 0zM11.79 11.81c2.19-2.15 5.8-1.08 7.21 1.42v2.84A14.47 14.47 0 0 0 16.03 19h-2.84c-2.57-1.37-3.59-5.03-1.4-7.19m4.26 5.04c.86-1.11 1.37-4.39-1.2-3.73-3.46-.98-1.94 5.66 1.2 3.73z"/>
    </g>
</symbol><symbol id="production-catalog_nav" viewBox="0 0 20 14">
    <g>
        <path d="M2.93 0H20v2H3.05l-.12-2zM7 6h13v2H7V6zM0 12h20v2H0v-2z"/>
    </g>
</symbol><symbol id="questions_nav" viewBox="0 0 21 21">
    <g>
        <path opacity=".84" d="M8.47 0h3.98c4.18 1 7.53 4.29 8.55 8.47v4.01c-.97 4.19-4.31 7.43-8.43 8.52H8.48C4.33 19.95.99 16.69 0 12.5V8.58C.94 4.35 4.31 1.07 8.47 0M7.31 2.36C1.34 4.45-.1 13.29 4.89 17.15c5.01 4.68 14.44.75 14.23-6.24.69-6.13-6.23-10.86-11.81-8.55z"/>
        <path opacity=".84" d="M7.7 8.29c-1.49-3.47 4.14-4.88 5.17-2.05 2.45 2.32-1.43 4.37-2.03 6.76H9.49c-.82-2.21 1.4-3.49 2.47-5.11-.36-.35-1.09-1.05-1.45-1.4-.7.45-2.11 1.35-2.81 1.8zM9.38 14.3c.96-1.58 3.43.29 2.28 1.67-.98 1.56-3.51-.26-2.28-1.67z"/>
    </g>
</symbol></svg>